<svg xmlns="http://www.w3.org/2000/svg" width="720" height="420" viewBox="0 0 720 420" font-family="-apple-system, BlinkMacSystemFont, 'Segoe UI', 'Noto Sans KR', 'Apple SD Gothic Neo', 'Malgun Gothic', sans-serif">
  <rect width="720" height="420" fill="#fbfbf9"/>
  <text x="20.0" y="30.0" font-size="16" fill="#24292f" text-anchor="start" font-weight="600">무작위 입력에서의 비교·이동 횟수</text>
  <text x="20.0" y="50.0" font-size="11.5" fill="#6e7781" text-anchor="start" font-weight="400">n = 4,000 무작위 입력 · 퀵은 힙보다 비교·이동이 모두 적다</text>
  <line x1="78.0" y1="358.0" x2="696.0" y2="358.0" stroke="#dfe1e4" stroke-width="1" stroke-dasharray="none"/>
  <text x="68.0" y="362.0" font-size="10.5" fill="#6e7781" text-anchor="end" font-weight="400">0</text>
  <line x1="78.0" y1="287.0" x2="696.0" y2="287.0" stroke="#dfe1e4" stroke-width="1" stroke-dasharray="none"/>
  <text x="68.0" y="291.0" font-size="10.5" fill="#6e7781" text-anchor="end" font-weight="400">1M</text>
  <line x1="78.0" y1="216.0" x2="696.0" y2="216.0" stroke="#dfe1e4" stroke-width="1" stroke-dasharray="none"/>
  <text x="68.0" y="220.0" font-size="10.5" fill="#6e7781" text-anchor="end" font-weight="400">2M</text>
  <line x1="78.0" y1="145.0" x2="696.0" y2="145.0" stroke="#dfe1e4" stroke-width="1" stroke-dasharray="none"/>
  <text x="68.0" y="149.0" font-size="10.5" fill="#6e7781" text-anchor="end" font-weight="400">3M</text>
  <line x1="78.0" y1="74.0" x2="696.0" y2="74.0" stroke="#dfe1e4" stroke-width="1" stroke-dasharray="none"/>
  <text x="68.0" y="78.0" font-size="10.5" fill="#6e7781" text-anchor="end" font-weight="400">4M</text>
  <line x1="78.0" y1="358.0" x2="696.0" y2="358.0" stroke="#6e7781" stroke-width="1" stroke-dasharray="none"/>
  <text x="20.0" y="60.0" font-size="11.5" fill="#6e7781" text-anchor="start" font-weight="400">횟수</text>
  <rect x="175.5" y="77.5" width="35.0" height="280.5" fill="#0072B2"/>
  <text x="193.0" y="72.5" font-size="9.5" fill="#6e7781" text-anchor="middle" font-weight="400">4M</text>
  <rect x="213.5" y="352.9" width="35.0" height="5.1" fill="#E69F00"/>
  <text x="231.0" y="347.9" font-size="9.5" fill="#6e7781" text-anchor="middle" font-weight="400">72K</text>
  <rect x="251.5" y="352.1" width="35.0" height="5.9" fill="#009E73"/>
  <text x="269.0" y="347.1" font-size="9.5" fill="#6e7781" text-anchor="middle" font-weight="400">83K</text>
  <text x="232.5" y="376.0" font-size="11.5" fill="#24292f" text-anchor="middle" font-weight="400">비교</text>
  <rect x="484.5" y="77.5" width="35.0" height="280.5" fill="#0072B2"/>
  <text x="502.0" y="72.5" font-size="9.5" fill="#6e7781" text-anchor="middle" font-weight="400">4M</text>
  <rect x="522.5" y="355.0" width="35.0" height="3.0" fill="#E69F00"/>
  <text x="540.0" y="350.0" font-size="9.5" fill="#6e7781" text-anchor="middle" font-weight="400">42K</text>
  <rect x="560.5" y="353.4" width="35.0" height="4.6" fill="#009E73"/>
  <text x="578.0" y="348.4" font-size="9.5" fill="#6e7781" text-anchor="middle" font-weight="400">64K</text>
  <text x="541.5" y="376.0" font-size="11.5" fill="#24292f" text-anchor="middle" font-weight="400">이동</text>
  <line x1="78.0" y1="390.0" x2="100.0" y2="390.0" stroke="#0072B2" stroke-width="2.4" stroke-dasharray="none"/>
  <circle cx="89.0" cy="390.0" r="3" fill="#0072B2"/>
  <text x="106.0" y="394.0" font-size="11.5" fill="#24292f" text-anchor="start" font-weight="400">insertionSort</text>
  <line x1="209.8" y1="390.0" x2="231.8" y2="390.0" stroke="#E69F00" stroke-width="2.4" stroke-dasharray="7 4"/>
  <circle cx="220.8" cy="390.0" r="3" fill="#E69F00"/>
  <text x="237.8" y="394.0" font-size="11.5" fill="#24292f" text-anchor="start" font-weight="400">quickSort</text>
  <line x1="315.2" y1="390.0" x2="337.2" y2="390.0" stroke="#009E73" stroke-width="2.4" stroke-dasharray="2 3"/>
  <circle cx="326.2" cy="390.0" r="3" fill="#009E73"/>
  <text x="343.2" y="394.0" font-size="11.5" fill="#24292f" text-anchor="start" font-weight="400">heapSort</text>
</svg>
